<svg width="208" height="208" viewBox="0 0 208 208" fill="none" xmlns="http://www.w3.org/2000/svg">
<g filter="url(#filter0_dd_1_502)">
<path d="M32 16.6957C32 14.1023 34.1023 12 36.6957 12H171.304C173.898 12 176 14.1023 176 16.6957V151.304C176 153.898 173.898 156 171.304 156H36.6957C34.1023 156 32 153.898 32 151.304V16.6957Z" fill="white"/>
<path opacity="0.2" d="M32 14.3478C32 13.0512 33.0512 12 34.3478 12H173.652C174.949 12 176 13.0512 176 14.3478V23.7391H32V14.3478Z" fill="#367BF5"/>
<path opacity="0.5" fill-rule="evenodd" clip-rule="evenodd" d="M44.1304 19.8261C45.2109 19.8261 46.0869 18.9502 46.0869 17.8696C46.0869 16.7891 45.2109 15.9131 44.1304 15.9131C43.0498 15.9131 42.1739 16.7891 42.1739 17.8696C42.1739 18.9502 43.0498 19.8261 44.1304 19.8261ZM37.8696 19.8267C38.9501 19.8267 39.8261 18.9508 39.8261 17.8702C39.8261 16.7897 38.9501 15.9137 37.8696 15.9137C36.789 15.9137 35.913 16.7897 35.913 17.8702C35.913 18.9508 36.789 19.8267 37.8696 19.8267ZM52.3478 17.8696C52.3478 18.9502 51.4718 19.8261 50.3913 19.8261C49.3107 19.8261 48.4347 18.9502 48.4347 17.8696C48.4347 16.7891 49.3107 15.9131 50.3913 15.9131C51.4718 15.9131 52.3478 16.7891 52.3478 17.8696Z" fill="#16518A"/>
<rect opacity="0.5" x="88.7999" y="133.304" width="18.4" height="6.26087" rx="1.56522" fill="#16518A"/>
<rect opacity="0.498717" x="88.7999" y="104.348" width="40.9756" height="3.91304" fill="#7E7E9F"/>
<rect opacity="0.2" x="88.8" y="112.174" width="67.2" height="2.34783" fill="#7E7E9F"/>
<rect opacity="0.2" x="88.8" y="117.652" width="67.2" height="2.34783" fill="#7E7E9F"/>
<rect opacity="0.2" x="88.8" y="123.131" width="50.8098" height="2.34783" fill="#7E7E9F"/>
<rect opacity="0.2" x="111.2" y="134.87" width="8.00001" height="2.34783" fill="#7E7E9F"/>
<rect opacity="0.498717" x="88.7999" y="39.3914" width="40" height="3.91304" fill="#7E7E9F"/>
<rect opacity="0.498717" x="88.8" y="46.435" width="24" height="3.91304" fill="#7E7E9F"/>
<rect opacity="0.2" x="88.8" y="65.2175" width="67.2" height="2.34783" fill="#7E7E9F"/>
<rect opacity="0.2" x="88.8" y="59.7393" width="67.2" height="2.34783" fill="#7E7E9F"/>
<rect opacity="0.2" x="88.7999" y="54.2609" width="67.2" height="2.34783" fill="#7E7E9F"/>
<rect opacity="0.2" x="88.8" y="70.6958" width="40.32" height="2.34783" fill="#7E7E9F"/>
<rect opacity="0.498717" x="88.7999" y="80.8696" width="13.6" height="3.91304" fill="#7E7E9F"/>
<rect opacity="0.498717" x="88.7999" y="92.6087" width="18.4" height="3.91304" fill="#7E7E9F"/>
<path opacity="0.196641" fill-rule="evenodd" clip-rule="evenodd" d="M61.7391 71.4783C71.6802 71.4783 79.7391 63.4194 79.7391 53.4783C79.7391 43.5371 71.6802 35.4783 61.7391 35.4783C51.798 35.4783 43.7391 43.5371 43.7391 53.4783C43.7391 63.4194 51.798 71.4783 61.7391 71.4783Z" fill="#7E7E9F"/>
<mask id="mask0_1_502" style="mask-type:alpha" maskUnits="userSpaceOnUse" x="43" y="35" width="37" height="37">
<path fill-rule="evenodd" clip-rule="evenodd" d="M61.7391 71.4783C71.6802 71.4783 79.7391 63.4194 79.7391 53.4783C79.7391 43.5371 71.6802 35.4783 61.7391 35.4783C51.798 35.4783 43.7391 43.5371 43.7391 53.4783C43.7391 63.4194 51.798 71.4783 61.7391 71.4783Z" fill="white"/>
</mask>
<g mask="url(#mask0_1_502)">
<path opacity="0.5" fill-rule="evenodd" clip-rule="evenodd" d="M67.7393 46.2784C67.7393 49.5922 65.053 52.2784 61.7393 52.2784C58.4256 52.2784 55.7393 49.5922 55.7393 46.2784C55.7393 42.9647 58.4256 40.2784 61.7393 40.2784C65.053 40.2784 67.7393 42.9647 67.7393 46.2784ZM77.3393 70.2784C77.3393 78.894 70.355 85.8784 61.7393 85.8784C53.1237 85.8784 46.1393 78.894 46.1393 70.2784C46.1393 61.6627 53.1237 54.6784 61.7393 54.6784C70.355 54.6784 77.3393 61.6627 77.3393 70.2784Z" fill="#16518A"/>
</g>
</g>
<defs>
<filter id="filter0_dd_1_502" x="0" y="0" width="208" height="208" filterUnits="userSpaceOnUse" color-interpolation-filters="sRGB">
<feFlood flood-opacity="0" result="BackgroundImageFix"/>
<feColorMatrix in="SourceAlpha" type="matrix" values="0 0 0 0 0 0 0 0 0 0 0 0 0 0 0 0 0 0 127 0" result="hardAlpha"/>
<feOffset dy="8"/>
<feGaussianBlur stdDeviation="8"/>
<feColorMatrix type="matrix" values="0 0 0 0 0.0295189 0 0 0 0 0.137798 0 0 0 0 0.187773 0 0 0 0.1 0"/>
<feBlend mode="multiply" in2="BackgroundImageFix" result="effect1_dropShadow_1_502"/>
<feColorMatrix in="SourceAlpha" type="matrix" values="0 0 0 0 0 0 0 0 0 0 0 0 0 0 0 0 0 0 127 0" result="hardAlpha"/>
<feOffset dy="20"/>
<feGaussianBlur stdDeviation="16"/>
<feColorMatrix type="matrix" values="0 0 0 0 0.0295189 0 0 0 0 0.137798 0 0 0 0 0.187773 0 0 0 0.06 0"/>
<feBlend mode="multiply" in2="effect1_dropShadow_1_502" result="effect2_dropShadow_1_502"/>
<feBlend mode="normal" in="SourceGraphic" in2="effect2_dropShadow_1_502" result="shape"/>
</filter>
</defs>
</svg>
