<svg width="48" height="48" viewBox="0 0 48 48" fill="none" xmlns="http://www.w3.org/2000/svg">
<rect width="48" height="48" rx="24" fill="white"/>
<path d="M31.3802 14.407C30.9242 14.371 30.4442 14.479 30.0002 14.719L19.6202 20.719C18.4682 21.391 18.0842 22.879 18.7442 24.007L20.5442 27.115C21.2042 28.279 22.6682 28.663 23.8202 28.003L25.9802 26.755C26.3042 27.307 26.7842 27.751 27.3722 28.003V30.127C27.3722 31.435 28.4402 32.479 29.7722 32.479H36.0002V30.127H29.7722V28.003C30.8642 27.523 31.5722 26.443 31.5722 25.279C31.5722 24.727 31.4282 24.211 31.1642 23.755L34.2002 22.003C35.3642 21.331 35.7602 19.879 35.0882 18.715L33.2882 15.607C32.8802 14.887 32.1482 14.479 31.3802 14.407ZM17.0642 24.283L12.0002 25.123L12.9002 26.683L15.3002 30.835L16.2002 32.395L19.4642 28.435L17.0642 24.283Z" fill="#367BF5"/>
</svg>
