<svg width="279" height="255" viewBox="0 0 279 255" fill="none" xmlns="http://www.w3.org/2000/svg">
<g filter="url(#filter0_dd_1_467)">
<path d="M32.125 18C32.125 14.6863 34.8113 12 38.125 12H241C244.314 12 247 14.6863 247 18V197C247 200.314 244.314 203 241 203H38.125C34.8113 203 32.125 200.314 32.125 197V18Z" fill="white"/>
<path opacity="0.2" d="M32.125 15.5813C32.125 13.6034 33.7284 12 35.7062 12H243.419C245.397 12 247 13.6034 247 15.5812V27.5707H32.125V15.5813Z" fill="#367BF5"/>
<path opacity="0.5" fill-rule="evenodd" clip-rule="evenodd" d="M41.0781 22.7441C42.7263 22.7441 44.0625 21.4079 44.0625 19.7597C44.0625 18.1115 42.7263 16.7753 41.0781 16.7753C39.4299 16.7753 38.0938 18.1115 38.0938 19.7597C38.0938 21.4079 39.4299 22.7441 41.0781 22.7441ZM50.6284 22.7441C52.2766 22.7441 53.6128 21.4079 53.6128 19.7597C53.6128 18.1115 52.2766 16.7753 50.6284 16.7753C48.9802 16.7753 47.644 18.1115 47.644 19.7597C47.644 21.4079 48.9802 22.7441 50.6284 22.7441ZM63.1624 19.7597C63.1624 21.4079 61.8262 22.7441 60.178 22.7441C58.5298 22.7441 57.1936 21.4079 57.1936 19.7597C57.1936 18.1115 58.5298 16.7753 60.178 16.7753C61.8262 16.7753 63.1624 18.1115 63.1624 19.7597Z" fill="#16518A"/>
<rect opacity="0.2" x="202.832" y="54.9749" width="1.19375" height="113.406" fill="#7E7E9F"/>
<rect opacity="0.2" x="146.725" y="126.6" width="1.19375" height="41.7812" fill="#7E7E9F"/>
<rect opacity="0.2" x="91.8125" y="90.7874" width="1.19375" height="77.5938" fill="#7E7E9F"/>
<path fill-rule="evenodd" clip-rule="evenodd" d="M44.0625 144.506V142.119C46.2633 142.119 48.6212 139.872 51.3687 135.176C52.771 132.779 54.2047 129.904 56.199 125.591C56.568 124.793 56.9463 123.969 57.4644 122.834C57.6115 122.512 57.7854 122.131 58.1095 121.421C58.3716 120.847 58.5692 120.414 58.7638 119.989C59.8367 117.646 60.6589 115.879 61.4891 114.147C65.7391 105.277 69.4545 99.0122 73.7197 94.176C79.0978 88.0781 85.0247 84.8188 91.8125 84.8188C98.5005 84.8188 104.155 87.2639 109.354 91.9461C113.279 95.4815 116.224 99.3185 121.503 107.173C121.64 107.376 122.461 108.599 122.699 108.953C127.476 116.055 130.164 119.567 133.526 122.64C137.776 126.525 142.208 128.487 147.398 128.471C152.745 128.454 157.802 124.827 162.954 117.736C167.068 112.076 170.66 105.314 176.305 93.3042C176.801 92.2499 178.814 87.9454 179.326 86.8574C180.493 84.3755 181.426 82.421 182.326 80.5818C190.347 64.1967 196.186 56.7656 203.428 56.7656C208.465 56.7656 212.431 59.4275 215.666 64.3958C218.124 68.1683 219.955 72.701 222.396 80.2744C222.708 81.2412 223.747 84.5113 223.889 84.9571C227.893 97.4546 230.613 102.128 235.062 102.128V104.516C231.669 104.516 228.989 102.425 226.713 98.5158C224.999 95.5718 223.654 92.0502 221.616 85.6854C221.472 85.2351 220.433 81.9679 220.124 81.0069C215.132 65.5215 210.984 59.1531 203.428 59.1531C197.551 59.1531 192.042 66.164 184.47 81.6316C183.576 83.4577 182.649 85.4018 181.487 87.8733C180.976 88.9586 178.963 93.2629 178.466 94.3198C172.757 106.464 169.116 113.318 164.886 119.14C159.332 126.784 153.678 130.838 147.406 130.858C141.572 130.877 136.581 128.667 131.915 124.403C128.367 121.16 125.6 117.543 120.718 110.285C120.48 109.931 119.658 108.707 119.522 108.505C114.35 100.811 111.488 97.0816 107.756 93.7201C102.973 89.4121 97.8716 87.2063 91.8125 87.2063C80.7127 87.2063 72.6828 96.311 63.6422 115.178C62.8191 116.896 62.0022 118.652 60.9346 120.983C60.7404 121.407 60.5432 121.839 60.2814 122.413C59.9575 123.122 59.7834 123.504 59.6361 123.826C59.1166 124.964 58.7369 125.792 58.3661 126.593C56.3419 130.971 54.88 133.902 53.4294 136.382C50.283 141.76 47.4004 144.506 44.0625 144.506Z" fill="#16518A"/>
<path opacity="0.2" fill-rule="evenodd" clip-rule="evenodd" d="M44.0625 144.506V142.119C46.3424 142.119 48.687 140.304 51.4303 136.494C52.826 134.556 54.2553 132.227 56.2451 128.731C56.6137 128.083 56.9918 127.413 57.5096 126.492C57.6567 126.231 57.8306 125.921 58.1547 125.344C58.4169 124.877 58.6145 124.526 58.8092 124.18C59.883 122.275 60.706 120.838 61.5374 119.428C70.9653 103.442 79.5177 95.5627 91.8125 95.5627C103.514 95.5627 110.142 97.7724 121.015 103.769C121.156 103.847 121.995 104.31 122.237 104.444C131.975 109.811 137.602 111.71 147.318 111.678C157.332 111.646 164.583 105.757 176.402 90.9387C176.896 90.3201 178.933 87.7534 179.457 87.0963C180.639 85.6156 181.585 84.4481 182.498 83.3494C190.499 73.7269 196.408 69.3002 203.428 69.3002C208.511 69.3002 212.478 72.3486 215.704 78.0174C218.148 82.3139 219.973 87.4855 222.409 96.1345C222.72 97.2405 223.759 100.984 223.902 101.494C227.905 115.8 230.666 121.228 235.062 121.228V123.616C231.619 123.616 228.946 121.229 226.681 116.774C224.977 113.424 223.637 109.406 221.603 102.138C221.459 101.623 220.421 97.8824 220.111 96.7816C215.115 79.0432 210.93 71.6877 203.428 71.6877C197.354 71.6877 191.906 75.7684 184.334 84.8758C183.433 85.9602 182.496 87.1162 181.324 88.5854C180.802 89.2394 178.764 91.8059 178.269 92.4275C172.53 99.622 168.862 103.693 164.599 107.155C159.043 111.667 153.434 114.046 147.326 114.066C137.129 114.099 131.146 112.08 121.085 106.535C120.842 106.401 120.002 105.937 119.862 105.86C109.31 100.04 103.041 97.9502 91.8125 97.9502C80.6303 97.9502 72.6279 105.323 63.5939 120.641C62.7719 122.035 61.9559 123.46 60.8892 125.353C60.6951 125.697 60.4979 126.048 60.2362 126.513C59.9123 127.09 59.7382 127.4 59.5909 127.662C59.0711 128.587 58.6912 129.26 58.32 129.912C56.2914 133.476 54.8251 135.865 53.3678 137.889C50.2172 142.265 47.3213 144.506 44.0625 144.506Z" fill="#7E7E9F"/>
<path fill-rule="evenodd" clip-rule="evenodd" d="M92.4092 90.7873C95.376 90.7873 97.7811 88.3822 97.7811 85.4154C97.7811 82.4486 95.376 80.0435 92.4092 80.0435C89.4424 80.0435 87.0374 82.4486 87.0374 85.4154C87.0374 88.3822 89.4424 90.7873 92.4092 90.7873Z" fill="#16518A"/>
<path fill-rule="evenodd" clip-rule="evenodd" d="M147.322 133.763C150.288 133.763 152.693 131.358 152.693 128.391C152.693 125.424 150.288 123.019 147.322 123.019C144.355 123.019 141.95 125.424 141.95 128.391C141.95 131.358 144.355 133.763 147.322 133.763Z" fill="#16518A"/>
<path fill-rule="evenodd" clip-rule="evenodd" d="M203.428 63.3314C206.395 63.3314 208.8 60.9263 208.8 57.9595C208.8 54.9927 206.395 52.5876 203.428 52.5876C200.461 52.5876 198.056 54.9927 198.056 57.9595C198.056 60.9263 200.461 63.3314 203.428 63.3314Z" fill="#16518A"/>
<rect opacity="0.2" x="44.0625" y="43.0374" width="1.19375" height="125.344" fill="#7E7E9F"/>
<rect opacity="0.2" x="44.0625" y="168.381" width="191" height="1.19375" fill="#7E7E9F"/>
<rect opacity="0.2" x="44.0625" y="41.8438" width="191" height="1.19375" fill="#7E7E9F"/>
<rect opacity="0.2" x="233.869" y="43.0374" width="1.19375" height="125.344" fill="#7E7E9F"/>
<rect opacity="0.498717" x="44.0625" y="183.9" width="56.1063" height="5.96875" fill="#7E7E9F"/>
<rect opacity="0.498717" x="112.106" y="183.9" width="56.1062" height="5.96875" fill="#7E7E9F"/>
<rect opacity="0.498717" x="180.15" y="183.9" width="54.9125" height="5.96875" fill="#7E7E9F"/>
</g>
<defs>
<filter id="filter0_dd_1_467" x="0.125" y="0" width="278.875" height="255" filterUnits="userSpaceOnUse" color-interpolation-filters="sRGB">
<feFlood flood-opacity="0" result="BackgroundImageFix"/>
<feColorMatrix in="SourceAlpha" type="matrix" values="0 0 0 0 0 0 0 0 0 0 0 0 0 0 0 0 0 0 127 0" result="hardAlpha"/>
<feOffset dy="8"/>
<feGaussianBlur stdDeviation="8"/>
<feColorMatrix type="matrix" values="0 0 0 0 0.0295189 0 0 0 0 0.137798 0 0 0 0 0.187773 0 0 0 0.1 0"/>
<feBlend mode="multiply" in2="BackgroundImageFix" result="effect1_dropShadow_1_467"/>
<feColorMatrix in="SourceAlpha" type="matrix" values="0 0 0 0 0 0 0 0 0 0 0 0 0 0 0 0 0 0 127 0" result="hardAlpha"/>
<feOffset dy="20"/>
<feGaussianBlur stdDeviation="16"/>
<feColorMatrix type="matrix" values="0 0 0 0 0.0295189 0 0 0 0 0.137798 0 0 0 0 0.187773 0 0 0 0.06 0"/>
<feBlend mode="multiply" in2="effect1_dropShadow_1_467" result="effect2_dropShadow_1_467"/>
<feBlend mode="normal" in="SourceGraphic" in2="effect2_dropShadow_1_467" result="shape"/>
</filter>
</defs>
</svg>
