<svg width="48" height="48" viewBox="0 0 48 48" fill="none" xmlns="http://www.w3.org/2000/svg">
<rect width="48" height="48" rx="24" fill="#E6EFFF"/>
<path d="M29.4002 27.6002H36.0002V29.4002H29.4002V31.5002L26.4002 28.5002L29.4002 25.5002V27.6002ZM33.0002 32.7002V30.6002L36.0002 33.6002L33.0002 36.6002V34.5002H26.4002V32.7002H33.0002ZM21.0002 15.6002C20.3637 15.6002 19.7532 15.3473 19.3032 14.8972C18.8531 14.4471 18.6002 13.8367 18.6002 13.2002C18.6002 12.5637 18.8531 11.9532 19.3032 11.5031C19.7532 11.053 20.3637 10.8002 21.0002 10.8002C21.6367 10.8002 22.2472 11.053 22.6973 11.5031C23.1474 11.9532 23.4002 12.5637 23.4002 13.2002C23.4002 13.8367 23.1474 14.4471 22.6973 14.8972C22.2472 15.3473 21.6367 15.6002 21.0002 15.6002ZM16.5002 19.6802L14.4002 20.5802V24.6002H12.0002V18.9602L18.3002 16.3802C18.6002 16.2602 18.9002 16.2002 19.2002 16.2002C20.0402 16.2002 20.8202 16.6202 21.2402 17.3402L22.3802 19.2602C23.4602 21.0002 25.3802 22.2002 27.6002 22.2002V24.6002C24.9602 24.6002 22.6202 23.4002 21.0602 21.4802L20.3402 25.0802L22.8002 27.5402V36.6002H20.4002V29.4002L17.8202 27.0002L15.7202 36.6002H13.2002L16.5002 19.6802Z" fill="#367BF5"/>
</svg>
